# This file uses centimeters as units for non-parametric coordinates.

mtllib Cycles.mtl
g default
v 1.015684 2.612167 1.082442
v 1.015684 2.612167 1.583131
v 1.635585 2.612167 1.082442
v 1.635585 2.612167 1.583131
v 2.013975 0.000000 1.181440
v 2.013975 1.573595 1.181440
v 2.247088 1.573594 1.932911
v 2.247088 0.000000 1.932911
v 1.262504 0.000000 1.414553
v 1.262504 1.573595 1.414554
v 1.495618 1.573594 2.166024
v 1.495618 0.000000 2.166024
v 0.617690 0.000000 0.316405
v 0.617690 0.786797 0.316405
v 1.371633 0.786797 0.541394
v 1.371633 0.000000 0.541395
v 0.392701 0.000000 1.070348
v 0.392701 0.786797 1.070348
v 1.146643 0.786797 1.295337
v 1.146643 0.000000 1.295337
v 2.620750 0.000000 2.666527
v 2.636009 0.000000 -0.000000
v 0.000000 0.000000 2.666527
v 0.000000 0.000000 0.000000
v 0.000000 2.616935 -0.000000
v 0.000000 2.616936 2.666527
v 2.651269 2.616936 2.666527
v 2.651268 2.616935 -0.000001
vn 0.000000 -1.000000 0.000000
vn 0.000000 -1.000000 0.000000
vn 0.000000 -1.000000 0.000000
vn 0.000000 -1.000000 0.000000
vn -0.296299 0.000000 -0.955095
vn -0.296299 0.000000 -0.955095
vn -0.296299 0.000000 -0.955095
vn -0.296299 0.000000 -0.955095
vn 0.000000 1.000000 0.000000
vn 0.000000 1.000000 0.000000
vn 0.000000 1.000000 0.000000
vn 0.000000 1.000000 0.000000
vn 0.296299 0.000000 0.955095
vn 0.296299 0.000000 0.955095
vn 0.296299 0.000000 0.955095
vn 0.296299 0.000000 0.955095
vn -0.000000 -1.000000 -0.000000
vn -0.000000 -1.000000 -0.000000
vn -0.000000 -1.000000 -0.000000
vn -0.000000 -1.000000 -0.000000
vn 0.955095 0.000000 -0.296299
vn 0.955095 0.000000 -0.296299
vn 0.955095 0.000000 -0.296299
vn 0.955095 0.000000 -0.296299
vn -0.955095 0.000000 0.296299
vn -0.955095 0.000000 0.296299
vn -0.955095 0.000000 0.296299
vn -0.955095 0.000000 0.296299
vn -0.958227 -0.000000 -0.286008
vn -0.958227 -0.000000 -0.286008
vn -0.958227 -0.000000 -0.286008
vn -0.958227 -0.000000 -0.286008
vn 0.000000 1.000000 0.000000
vn 0.000000 1.000000 0.000000
vn 0.000000 1.000000 0.000000
vn 0.000000 1.000000 0.000000
vn 0.958227 0.000000 0.286008
vn 0.958227 0.000000 0.286008
vn 0.958227 0.000000 0.286008
vn 0.958227 0.000000 0.286008
vn 0.000000 -1.000000 0.000000
vn 0.000000 -1.000000 0.000000
vn 0.000000 -1.000000 0.000000
vn 0.000000 -1.000000 0.000000
vn 0.286008 0.000000 -0.958227
vn 0.286008 0.000000 -0.958227
vn 0.286008 0.000000 -0.958227
vn 0.286008 0.000000 -0.958227
vn -0.286008 0.000000 0.958227
vn -0.286008 0.000000 0.958227
vn -0.286008 0.000000 0.958227
vn -0.286008 0.000000 0.958227
vn 0.000000 1.000000 0.000000
vn 0.000000 1.000000 0.000000
vn 0.000000 1.000000 0.000000
vn 0.000000 1.000000 0.000000
vn 0.000000 -1.000000 0.000000
vn 0.000000 -1.000000 0.000000
vn 0.000000 -1.000000 0.000000
vn 0.000000 -1.000000 0.000000
vn 0.000000 0.000000 -1.000000
vn 0.000000 0.000000 -1.000000
vn 0.000000 0.000000 -1.000000
vn 0.000000 0.000000 -1.000000
vn -0.999958 0.008700 -0.002900
vn -0.999958 0.008700 -0.002900
vn -0.999958 0.008700 -0.002900
vn -0.999958 0.008700 -0.002900
vn 1.000000 0.000000 0.000000
vn 1.000000 0.000000 0.000000
vn 1.000000 0.000000 0.000000
vn 1.000000 0.000000 0.000000
s off
g Cycles:Mesh
usemtl Cycles:Emitter
f 1//1 3//2 4//3 2//4
usemtl Cycles:box_Material
f 9//5 10//6 6//7 5//8
f 10//9 11//10 7//11 6//12
f 11//13 12//14 8//15 7//16
f 12//17 9//18 5//19 8//20
f 5//21 6//22 7//23 8//24
f 12//25 11//26 10//27 9//28
f 17//29 18//30 14//31 13//32
f 18//33 19//34 15//35 14//36
f 19//37 20//38 16//39 15//40
f 20//41 17//42 13//43 16//44
f 13//45 14//46 15//47 16//48
f 20//49 19//50 18//51 17//52
usemtl Cycles:cbox_Material
f 23//53 21//54 22//55 24//56
f 27//57 26//58 25//59 28//60
f 23//61 26//62 27//63 21//64
usemtl Cycles:cbox_red
f 21//65 27//66 28//67 22//68
usemtl Cycles:cbox_green
f 24//69 25//70 26//71 23//72
